<svg xmlns="http://www.w3.org/2000/svg" xmlns:xlink="http://www.w3.org/1999/xlink" width="500" zoomAndPan="magnify" viewBox="0 0 375 374.999991" height="500" preserveAspectRatio="xMidYMid meet" version="1.2"><defs/><g id="4c74c9a5ad"><rect x="0" width="375" y="0" height="374.999991" style="fill:#ffffff;fill-opacity:1;stroke:none;"/><rect x="0" width="375" y="0" height="374.999991" style="fill:#ffffff;fill-opacity:1;stroke:none;"/><g style="fill:#000000;fill-opacity:1;"><g transform="translate(88.764548, 239.428862)"><path style="stroke:none" d="M 89.09375 -89.09375 C 106.5625 -86.707031 119.023438 -81.660156 126.484375 -73.953125 C 133.953125 -66.253906 137.6875 -57.007812 137.6875 -46.21875 C 137.6875 -37.164062 135.378906 -29.144531 130.765625 -22.15625 C 126.160156 -15.164062 119.570312 -9.722656 111 -5.828125 C 102.425781 -1.941406 92.265625 0 80.515625 0 C 76.222656 0 72.570312 -0.078125 69.5625 -0.234375 C 59.394531 -0.554688 49.390625 -0.71875 39.546875 -0.71875 C 26.523438 -0.71875 16.675781 -0.476562 10 0 L 10 -4.765625 C 15.71875 -5.078125 19.882812 -5.707031 22.5 -6.65625 C 25.125 -7.613281 26.910156 -9.441406 27.859375 -12.140625 C 28.816406 -14.847656 29.296875 -19.21875 29.296875 -25.25 L 29.296875 -143.390625 C 29.296875 -149.429688 28.816406 -153.800781 27.859375 -156.5 C 26.910156 -159.195312 25.125 -161.019531 22.5 -161.96875 C 19.882812 -162.925781 15.71875 -163.566406 10 -163.890625 L 10 -168.640625 C 16.675781 -168.171875 26.363281 -167.9375 39.0625 -167.9375 L 64.796875 -168.171875 C 67.804688 -168.328125 71.21875 -168.40625 75.03125 -168.40625 C 91.226562 -168.40625 103.65625 -164.988281 112.3125 -158.15625 C 120.96875 -151.332031 125.296875 -142.285156 125.296875 -131.015625 C 125.296875 -121.804688 122.394531 -113.546875 116.59375 -106.234375 C 110.800781 -98.929688 101.632812 -93.375 89.09375 -89.5625 Z M 69.078125 -163.890625 C 64.148438 -163.890625 60.457031 -163.332031 58 -162.21875 C 55.539062 -161.101562 53.832031 -159.113281 52.875 -156.25 C 51.925781 -153.394531 51.453125 -149.109375 51.453125 -143.390625 L 51.453125 -89.5625 L 67.40625 -89.5625 C 80.425781 -89.5625 89.515625 -93.09375 94.671875 -100.15625 C 99.835938 -107.226562 102.421875 -116.640625 102.421875 -128.390625 C 102.421875 -140.296875 99.800781 -149.1875 94.5625 -155.0625 C 89.320312 -160.945312 80.828125 -163.890625 69.078125 -163.890625 Z M 69.3125 -5.484375 C 99.007812 -5.484375 113.859375 -19.378906 113.859375 -47.171875 C 113.859375 -59.710938 110.484375 -69.238281 103.734375 -75.75 C 96.984375 -82.257812 86.222656 -85.515625 71.453125 -85.515625 L 51.453125 -85.515625 L 51.453125 -25.25 C 51.453125 -19.53125 51.925781 -15.320312 52.875 -12.625 C 53.832031 -9.925781 55.539062 -8.0625 58 -7.03125 C 60.457031 -6 64.226562 -5.484375 69.3125 -5.484375 Z M 69.3125 -5.484375 "/></g></g><g style="fill:#ffffff;fill-opacity:1;"><g transform="translate(133.76714, 253.599935)"><path style="stroke:none" d="M 170.828125 -141.765625 C 165.878906 -141.492188 162.269531 -140.945312 160 -140.125 C 157.738281 -139.300781 156.195312 -137.71875 155.375 -135.375 C 154.550781 -133.039062 154.140625 -129.265625 154.140625 -124.046875 L 154.140625 -21.84375 C 154.140625 -16.625 154.550781 -12.84375 155.375 -10.5 C 156.195312 -8.164062 157.738281 -6.585938 160 -5.765625 C 162.269531 -4.941406 165.878906 -4.394531 170.828125 -4.125 L 170.828125 0 C 164.503906 -0.414062 155.78125 -0.625 144.65625 -0.625 C 132.84375 -0.625 124.050781 -0.414062 118.28125 0 L 118.28125 -4.125 C 123.226562 -4.394531 126.832031 -4.941406 129.09375 -5.765625 C 131.363281 -6.585938 132.910156 -8.164062 133.734375 -10.5 C 134.554688 -12.84375 134.96875 -16.625 134.96875 -21.84375 L 134.96875 -132.296875 L 85.3125 1.03125 L 82.015625 1.03125 L 30.078125 -132.703125 L 30.078125 -23.90625 C 30.078125 -18.539062 30.523438 -14.550781 31.421875 -11.9375 C 32.316406 -9.332031 34.066406 -7.445312 36.671875 -6.28125 C 39.285156 -5.113281 43.34375 -4.394531 48.84375 -4.125 L 48.84375 0 C 43.894531 -0.414062 36.882812 -0.625 27.8125 -0.625 C 19.570312 -0.625 13.1875 -0.414062 8.65625 0 L 8.65625 -4.125 C 13.457031 -4.394531 17.023438 -5.113281 19.359375 -6.28125 C 21.703125 -7.445312 23.285156 -9.367188 24.109375 -12.046875 C 24.929688 -14.734375 25.34375 -18.6875 25.34375 -23.90625 L 25.34375 -124.046875 C 25.34375 -129.265625 24.929688 -133.039062 24.109375 -135.375 C 23.285156 -137.71875 21.738281 -139.300781 19.46875 -140.125 C 17.207031 -140.945312 13.601562 -141.492188 8.65625 -141.765625 L 8.65625 -145.890625 C 13.1875 -145.484375 19.570312 -145.28125 27.8125 -145.28125 C 34.957031 -145.28125 40.796875 -145.484375 45.328125 -145.890625 L 90.671875 -26.578125 L 134.96875 -145.28125 L 144.65625 -145.28125 C 155.78125 -145.28125 164.503906 -145.484375 170.828125 -145.890625 Z M 170.828125 -141.765625 "/></g></g><g style="fill:#000000;fill-opacity:1;"><g transform="translate(127.343331, 253.150739)"><path style="stroke:none" d="M 170.828125 -141.765625 C 165.878906 -141.492188 162.269531 -140.945312 160 -140.125 C 157.738281 -139.300781 156.195312 -137.71875 155.375 -135.375 C 154.550781 -133.039062 154.140625 -129.265625 154.140625 -124.046875 L 154.140625 -21.84375 C 154.140625 -16.625 154.550781 -12.84375 155.375 -10.5 C 156.195312 -8.164062 157.738281 -6.585938 160 -5.765625 C 162.269531 -4.941406 165.878906 -4.394531 170.828125 -4.125 L 170.828125 0 C 164.503906 -0.414062 155.78125 -0.625 144.65625 -0.625 C 132.84375 -0.625 124.050781 -0.414062 118.28125 0 L 118.28125 -4.125 C 123.226562 -4.394531 126.832031 -4.941406 129.09375 -5.765625 C 131.363281 -6.585938 132.910156 -8.164062 133.734375 -10.5 C 134.554688 -12.84375 134.96875 -16.625 134.96875 -21.84375 L 134.96875 -132.296875 L 85.3125 1.03125 L 82.015625 1.03125 L 30.078125 -132.703125 L 30.078125 -23.90625 C 30.078125 -18.539062 30.523438 -14.550781 31.421875 -11.9375 C 32.316406 -9.332031 34.066406 -7.445312 36.671875 -6.28125 C 39.285156 -5.113281 43.34375 -4.394531 48.84375 -4.125 L 48.84375 0 C 43.894531 -0.414062 36.882812 -0.625 27.8125 -0.625 C 19.570312 -0.625 13.1875 -0.414062 8.65625 0 L 8.65625 -4.125 C 13.457031 -4.394531 17.023438 -5.113281 19.359375 -6.28125 C 21.703125 -7.445312 23.285156 -9.367188 24.109375 -12.046875 C 24.929688 -14.734375 25.34375 -18.6875 25.34375 -23.90625 L 25.34375 -124.046875 C 25.34375 -129.265625 24.929688 -133.039062 24.109375 -135.375 C 23.285156 -137.71875 21.738281 -139.300781 19.46875 -140.125 C 17.207031 -140.945312 13.601562 -141.492188 8.65625 -141.765625 L 8.65625 -145.890625 C 13.1875 -145.484375 19.570312 -145.28125 27.8125 -145.28125 C 34.957031 -145.28125 40.796875 -145.484375 45.328125 -145.890625 L 90.671875 -26.578125 L 134.96875 -145.28125 L 144.65625 -145.28125 C 155.78125 -145.28125 164.503906 -145.484375 170.828125 -145.890625 Z M 170.828125 -141.765625 "/></g></g><g style="fill:#000000;fill-opacity:1;"><g transform="translate(137.244298, 320.685272)"><path style="stroke:none" d="M 4.78125 0.0625 C 3.988281 0.0625 3.273438 -0.109375 2.640625 -0.453125 C 2.003906 -0.804688 1.503906 -1.296875 1.140625 -1.921875 C 0.773438 -2.546875 0.59375 -3.242188 0.59375 -4.015625 C 0.59375 -4.785156 0.773438 -5.476562 1.140625 -6.09375 C 1.503906 -6.71875 2.003906 -7.203125 2.640625 -7.546875 C 3.285156 -7.898438 4.003906 -8.078125 4.796875 -8.078125 C 5.390625 -8.078125 5.9375 -7.976562 6.4375 -7.78125 C 6.945312 -7.582031 7.378906 -7.296875 7.734375 -6.921875 L 7.1875 -6.375 C 6.5625 -7.007812 5.773438 -7.328125 4.828125 -7.328125 C 4.191406 -7.328125 3.613281 -7.179688 3.09375 -6.890625 C 2.570312 -6.597656 2.164062 -6.203125 1.875 -5.703125 C 1.582031 -5.203125 1.4375 -4.640625 1.4375 -4.015625 C 1.4375 -3.378906 1.582031 -2.8125 1.875 -2.3125 C 2.164062 -1.8125 2.570312 -1.414062 3.09375 -1.125 C 3.613281 -0.832031 4.191406 -0.6875 4.828125 -0.6875 C 5.785156 -0.6875 6.570312 -1.007812 7.1875 -1.65625 L 7.734375 -1.109375 C 7.378906 -0.722656 6.945312 -0.429688 6.4375 -0.234375 C 5.9375 -0.0351562 5.382812 0.0625 4.78125 0.0625 Z M 4.78125 0.0625 "/></g></g><g style="fill:#000000;fill-opacity:1;"><g transform="translate(150.553639, 320.685272)"><path style="stroke:none" d="M 4.8125 0.0625 C 4.019531 0.0625 3.300781 -0.113281 2.65625 -0.46875 C 2.007812 -0.820312 1.503906 -1.304688 1.140625 -1.921875 C 0.773438 -2.546875 0.59375 -3.242188 0.59375 -4.015625 C 0.59375 -4.785156 0.773438 -5.476562 1.140625 -6.09375 C 1.503906 -6.707031 2.007812 -7.191406 2.65625 -7.546875 C 3.300781 -7.898438 4.019531 -8.078125 4.8125 -8.078125 C 5.601562 -8.078125 6.316406 -7.898438 6.953125 -7.546875 C 7.597656 -7.203125 8.101562 -6.71875 8.46875 -6.09375 C 8.832031 -5.476562 9.015625 -4.785156 9.015625 -4.015625 C 9.015625 -3.242188 8.832031 -2.546875 8.46875 -1.921875 C 8.101562 -1.296875 7.597656 -0.804688 6.953125 -0.453125 C 6.316406 -0.109375 5.601562 0.0625 4.8125 0.0625 Z M 4.8125 -0.6875 C 5.445312 -0.6875 6.019531 -0.828125 6.53125 -1.109375 C 7.039062 -1.398438 7.441406 -1.796875 7.734375 -2.296875 C 8.023438 -2.804688 8.171875 -3.378906 8.171875 -4.015625 C 8.171875 -4.640625 8.023438 -5.203125 7.734375 -5.703125 C 7.441406 -6.210938 7.039062 -6.609375 6.53125 -6.890625 C 6.019531 -7.179688 5.445312 -7.328125 4.8125 -7.328125 C 4.175781 -7.328125 3.597656 -7.179688 3.078125 -6.890625 C 2.566406 -6.609375 2.164062 -6.210938 1.875 -5.703125 C 1.582031 -5.203125 1.4375 -4.640625 1.4375 -4.015625 C 1.4375 -3.378906 1.582031 -2.804688 1.875 -2.296875 C 2.164062 -1.796875 2.566406 -1.398438 3.078125 -1.109375 C 3.597656 -0.828125 4.175781 -0.6875 4.8125 -0.6875 Z M 4.8125 -0.6875 "/></g></g><g style="fill:#000000;fill-opacity:1;"><g transform="translate(165.236888, 320.685272)"><path style="stroke:none" d="M 8 -8.015625 L 8 0 L 7.3125 0 L 2.15625 -6.5 L 2.15625 0 L 1.3125 0 L 1.3125 -8.015625 L 2 -8.015625 L 7.171875 -1.515625 L 7.171875 -8.015625 Z M 8 -8.015625 "/></g></g><g style="fill:#000000;fill-opacity:1;"><g transform="translate(179.622454, 320.685272)"><path style="stroke:none" d="M 2.859375 -7.28125 L 0.046875 -7.28125 L 0.046875 -8.015625 L 6.53125 -8.015625 L 6.53125 -7.28125 L 3.703125 -7.28125 L 3.703125 0 L 2.859375 0 Z M 2.859375 -7.28125 "/></g></g><g style="fill:#000000;fill-opacity:1;"><g transform="translate(191.271646, 320.685272)"><path style="stroke:none" d="M 6.328125 -2.140625 L 1.859375 -2.140625 L 0.90625 0 L 0.015625 0 L 3.6875 -8.015625 L 4.53125 -8.015625 L 8.1875 0 L 7.296875 0 Z M 6.03125 -2.828125 L 4.09375 -7.140625 L 2.171875 -2.828125 Z M 6.03125 -2.828125 "/></g></g><g style="fill:#000000;fill-opacity:1;"><g transform="translate(204.558088, 320.685272)"><path style="stroke:none" d="M 6.359375 -4.140625 C 6.878906 -4.023438 7.28125 -3.796875 7.5625 -3.453125 C 7.851562 -3.109375 8 -2.671875 8 -2.140625 C 8 -1.453125 7.742188 -0.921875 7.234375 -0.546875 C 6.734375 -0.179688 5.988281 0 5 0 L 1.3125 0 L 1.3125 -8.015625 L 4.765625 -8.015625 C 5.660156 -8.015625 6.351562 -7.832031 6.84375 -7.46875 C 7.332031 -7.113281 7.578125 -6.609375 7.578125 -5.953125 C 7.578125 -5.515625 7.46875 -5.140625 7.25 -4.828125 C 7.03125 -4.515625 6.734375 -4.285156 6.359375 -4.140625 Z M 2.15625 -7.3125 L 2.15625 -4.40625 L 4.703125 -4.40625 C 5.359375 -4.40625 5.859375 -4.53125 6.203125 -4.78125 C 6.554688 -5.03125 6.734375 -5.390625 6.734375 -5.859375 C 6.734375 -6.335938 6.554688 -6.695312 6.203125 -6.9375 C 5.859375 -7.1875 5.359375 -7.3125 4.703125 -7.3125 Z M 4.984375 -0.703125 C 5.703125 -0.703125 6.242188 -0.820312 6.609375 -1.0625 C 6.972656 -1.3125 7.15625 -1.691406 7.15625 -2.203125 C 7.15625 -3.203125 6.429688 -3.703125 4.984375 -3.703125 L 2.15625 -3.703125 L 2.15625 -0.703125 Z M 4.984375 -0.703125 "/></g></g><g style="fill:#000000;fill-opacity:1;"><g transform="translate(218.268154, 320.685272)"><path style="stroke:none" d="M 1.3125 -8.015625 L 2.15625 -8.015625 L 2.15625 -0.734375 L 6.640625 -0.734375 L 6.640625 0 L 1.3125 0 Z M 1.3125 -8.015625 "/></g></g><g style="fill:#000000;fill-opacity:1;"><g transform="translate(230.089088, 320.685272)"><path style="stroke:none" d="M 6.96875 -0.734375 L 6.96875 0 L 1.3125 0 L 1.3125 -8.015625 L 6.796875 -8.015625 L 6.796875 -7.28125 L 2.15625 -7.28125 L 2.15625 -4.4375 L 6.296875 -4.4375 L 6.296875 -3.703125 L 2.15625 -3.703125 L 2.15625 -0.734375 Z M 6.96875 -0.734375 "/></g></g><g style="fill:#000000;fill-opacity:1;"><g transform="translate(117.509725, 298.7875)"><path style="stroke:none" d="M 8.359375 -18.796875 C 11.492188 -18.796875 13.835938 -18.007812 15.390625 -16.4375 C 16.953125 -14.875 17.734375 -12.597656 17.734375 -9.609375 C 17.734375 -7.679688 17.351562 -5.988281 16.59375 -4.53125 C 15.832031 -3.082031 14.726562 -1.960938 13.28125 -1.171875 C 11.84375 -0.390625 10.125 0 8.125 0 L 6.578125 -0.03125 C 5.585938 -0.0625 4.863281 -0.078125 4.40625 -0.078125 C 2.957031 -0.078125 1.859375 -0.0507812 1.109375 0 L 1.109375 -0.53125 C 1.753906 -0.5625 2.222656 -0.628906 2.515625 -0.734375 C 2.804688 -0.847656 3.003906 -1.054688 3.109375 -1.359375 C 3.210938 -1.660156 3.265625 -2.144531 3.265625 -2.8125 L 3.265625 -15.984375 C 3.265625 -16.648438 3.210938 -17.132812 3.109375 -17.4375 C 3.003906 -17.738281 2.804688 -17.941406 2.515625 -18.046875 C 2.222656 -18.160156 1.753906 -18.234375 1.109375 -18.265625 L 1.109375 -18.796875 C 1.734375 -18.742188 2.59375 -18.71875 3.6875 -18.71875 L 5.953125 -18.734375 C 7.148438 -18.773438 7.953125 -18.796875 8.359375 -18.796875 Z M 7.703125 -18.3125 C 7.148438 -18.3125 6.734375 -18.25 6.453125 -18.125 C 6.179688 -18.007812 5.992188 -17.789062 5.890625 -17.46875 C 5.785156 -17.144531 5.734375 -16.664062 5.734375 -16.03125 L 5.734375 -2.765625 C 5.734375 -2.128906 5.785156 -1.648438 5.890625 -1.328125 C 5.992188 -1.003906 6.179688 -0.78125 6.453125 -0.65625 C 6.734375 -0.539062 7.15625 -0.484375 7.71875 -0.484375 C 9.601562 -0.484375 11.082031 -0.820312 12.15625 -1.5 C 13.238281 -2.175781 13.992188 -3.171875 14.421875 -4.484375 C 14.859375 -5.796875 15.078125 -7.46875 15.078125 -9.5 C 15.078125 -11.539062 14.835938 -13.203125 14.359375 -14.484375 C 13.878906 -15.765625 13.101562 -16.722656 12.03125 -17.359375 C 10.96875 -17.992188 9.523438 -18.3125 7.703125 -18.3125 Z M 7.703125 -18.3125 "/></g></g><g style="fill:#000000;fill-opacity:1;"><g transform="translate(136.700287, 298.7875)"><path style="stroke:none" d="M 14.703125 -3.390625 C 14.703125 -2.390625 14.765625 -1.257812 14.890625 0 C 13.691406 -0.0507812 11.664062 -0.078125 8.8125 -0.078125 C 5.414062 -0.078125 2.847656 -0.0507812 1.109375 0 L 1.109375 -0.53125 C 1.753906 -0.5625 2.222656 -0.628906 2.515625 -0.734375 C 2.804688 -0.847656 3.003906 -1.054688 3.109375 -1.359375 C 3.210938 -1.660156 3.265625 -2.144531 3.265625 -2.8125 L 3.265625 -15.984375 C 3.265625 -16.648438 3.210938 -17.132812 3.109375 -17.4375 C 3.003906 -17.738281 2.804688 -17.941406 2.515625 -18.046875 C 2.222656 -18.160156 1.753906 -18.234375 1.109375 -18.265625 L 1.109375 -18.796875 C 2.847656 -18.742188 5.414062 -18.71875 8.8125 -18.71875 C 11.414062 -18.71875 13.265625 -18.742188 14.359375 -18.796875 C 14.234375 -17.628906 14.171875 -16.582031 14.171875 -15.65625 C 14.171875 -14.96875 14.195312 -14.421875 14.25 -14.015625 L 13.640625 -14.015625 C 13.515625 -15.171875 13.351562 -16.023438 13.15625 -16.578125 C 12.96875 -17.140625 12.644531 -17.546875 12.1875 -17.796875 C 11.726562 -18.054688 11.03125 -18.1875 10.09375 -18.1875 L 7.890625 -18.1875 C 7.242188 -18.1875 6.773438 -18.132812 6.484375 -18.03125 C 6.191406 -17.9375 5.992188 -17.738281 5.890625 -17.4375 C 5.785156 -17.132812 5.734375 -16.648438 5.734375 -15.984375 L 5.734375 -9.71875 L 7.484375 -9.71875 C 8.109375 -9.71875 8.585938 -9.863281 8.921875 -10.15625 C 9.253906 -10.445312 9.476562 -10.789062 9.59375 -11.1875 C 9.707031 -11.582031 9.800781 -12.082031 9.875 -12.6875 L 9.953125 -13.21875 L 10.5625 -13.21875 C 10.507812 -12.476562 10.484375 -11.644531 10.484375 -10.71875 L 10.484375 -9.453125 C 10.484375 -8.546875 10.535156 -7.289062 10.640625 -5.6875 L 10.03125 -5.6875 C 10.019531 -5.800781 9.96875 -6.222656 9.875 -6.953125 C 9.789062 -7.691406 9.546875 -8.25 9.140625 -8.625 C 8.742188 -9 8.191406 -9.1875 7.484375 -9.1875 L 5.734375 -9.1875 L 5.734375 -2.8125 C 5.734375 -2.144531 5.785156 -1.660156 5.890625 -1.359375 C 5.992188 -1.054688 6.191406 -0.851562 6.484375 -0.75 C 6.773438 -0.65625 7.242188 -0.609375 7.890625 -0.609375 L 9.828125 -0.609375 C 10.921875 -0.609375 11.753906 -0.753906 12.328125 -1.046875 C 12.898438 -1.335938 13.316406 -1.804688 13.578125 -2.453125 C 13.847656 -3.097656 14.046875 -4.050781 14.171875 -5.3125 L 14.78125 -5.3125 C 14.726562 -4.832031 14.703125 -4.191406 14.703125 -3.390625 Z M 14.703125 -3.390625 "/></g></g><g style="fill:#000000;fill-opacity:1;"><g transform="translate(152.864951, 298.7875)"><path style="stroke:none" d="M 6.796875 -19.09375 C 7.578125 -19.09375 8.191406 -19.003906 8.640625 -18.828125 C 9.085938 -18.660156 9.550781 -18.421875 10.03125 -18.109375 C 10.425781 -17.859375 10.726562 -17.734375 10.9375 -17.734375 C 11.09375 -17.734375 11.210938 -17.828125 11.296875 -18.015625 C 11.390625 -18.203125 11.460938 -18.5 11.515625 -18.90625 L 12.125 -18.90625 C 12.039062 -17.875 12 -16.066406 12 -13.484375 L 11.390625 -13.484375 C 11.285156 -14.921875 10.875 -16.128906 10.15625 -17.109375 C 9.4375 -18.085938 8.394531 -18.578125 7.03125 -18.578125 C 6.070312 -18.578125 5.289062 -18.289062 4.6875 -17.71875 C 4.09375 -17.144531 3.796875 -16.40625 3.796875 -15.5 C 3.796875 -14.832031 3.945312 -14.25 4.25 -13.75 C 4.5625 -13.257812 4.957031 -12.835938 5.4375 -12.484375 C 5.914062 -12.128906 6.597656 -11.675781 7.484375 -11.125 L 8.25 -10.640625 C 9.363281 -9.953125 10.242188 -9.347656 10.890625 -8.828125 C 11.535156 -8.304688 12.050781 -7.707031 12.4375 -7.03125 C 12.832031 -6.363281 13.03125 -5.578125 13.03125 -4.671875 C 13.03125 -3.054688 12.5 -1.8125 11.4375 -0.9375 C 10.375 -0.0625 9.03125 0.375 7.40625 0.375 C 6.550781 0.375 5.851562 0.285156 5.3125 0.109375 C 4.78125 -0.0664062 4.265625 -0.304688 3.765625 -0.609375 C 3.378906 -0.859375 3.078125 -0.984375 2.859375 -0.984375 C 2.703125 -0.984375 2.578125 -0.890625 2.484375 -0.703125 C 2.398438 -0.515625 2.332031 -0.21875 2.28125 0.1875 L 1.671875 0.1875 C 1.742188 -0.789062 1.78125 -2.914062 1.78125 -6.1875 L 2.390625 -6.1875 C 2.515625 -4.394531 2.957031 -2.941406 3.71875 -1.828125 C 4.476562 -0.710938 5.644531 -0.15625 7.21875 -0.15625 C 8.175781 -0.15625 8.988281 -0.453125 9.65625 -1.046875 C 10.332031 -1.640625 10.671875 -2.519531 10.671875 -3.6875 C 10.671875 -4.675781 10.335938 -5.515625 9.671875 -6.203125 C 9.015625 -6.898438 7.96875 -7.679688 6.53125 -8.546875 C 5.488281 -9.179688 4.644531 -9.742188 4 -10.234375 C 3.351562 -10.734375 2.828125 -11.332031 2.421875 -12.03125 C 2.015625 -12.738281 1.8125 -13.5625 1.8125 -14.5 C 1.8125 -15.976562 2.285156 -17.113281 3.234375 -17.90625 C 4.191406 -18.695312 5.378906 -19.09375 6.796875 -19.09375 Z M 6.796875 -19.09375 "/></g></g><g style="fill:#000000;fill-opacity:1;"><g transform="translate(167.198148, 298.7875)"><path style="stroke:none" d="M 5.734375 -7.59375 L 5.734375 -2.8125 C 5.734375 -2.144531 5.800781 -1.660156 5.9375 -1.359375 C 6.082031 -1.054688 6.332031 -0.847656 6.6875 -0.734375 C 7.039062 -0.628906 7.617188 -0.5625 8.421875 -0.53125 L 8.421875 0 C 7.492188 -0.0507812 6.191406 -0.078125 4.515625 -0.078125 C 2.992188 -0.078125 1.859375 -0.0507812 1.109375 0 L 1.109375 -0.53125 C 1.753906 -0.5625 2.222656 -0.628906 2.515625 -0.734375 C 2.804688 -0.847656 3.003906 -1.054688 3.109375 -1.359375 C 3.210938 -1.660156 3.265625 -2.144531 3.265625 -2.8125 L 3.265625 -15.984375 C 3.265625 -16.648438 3.210938 -17.132812 3.109375 -17.4375 C 3.003906 -17.738281 2.804688 -17.941406 2.515625 -18.046875 C 2.222656 -18.160156 1.753906 -18.234375 1.109375 -18.265625 L 1.109375 -18.796875 C 1.859375 -18.742188 2.941406 -18.71875 4.359375 -18.71875 L 7.21875 -18.734375 C 7.550781 -18.753906 7.929688 -18.765625 8.359375 -18.765625 C 10.429688 -18.765625 12.015625 -18.289062 13.109375 -17.34375 C 14.210938 -16.394531 14.765625 -15.125 14.765625 -13.53125 C 14.765625 -12.5625 14.546875 -11.628906 14.109375 -10.734375 C 13.671875 -9.835938 12.9375 -9.085938 11.90625 -8.484375 C 10.875 -7.890625 9.5 -7.59375 7.78125 -7.59375 Z M 7.703125 -18.265625 C 7.148438 -18.265625 6.734375 -18.203125 6.453125 -18.078125 C 6.179688 -17.953125 5.992188 -17.726562 5.890625 -17.40625 C 5.785156 -17.09375 5.734375 -16.617188 5.734375 -15.984375 L 5.734375 -8.125 L 7.515625 -8.125 C 9.242188 -8.125 10.441406 -8.585938 11.109375 -9.515625 C 11.773438 -10.441406 12.109375 -11.6875 12.109375 -13.25 C 12.109375 -14.96875 11.765625 -16.234375 11.078125 -17.046875 C 10.398438 -17.859375 9.273438 -18.265625 7.703125 -18.265625 Z M 7.703125 -18.265625 "/></g></g><g style="fill:#000000;fill-opacity:1;"><g transform="translate(182.725777, 298.7875)"><path style="stroke:none" d="M 15.046875 -2.234375 C 15.472656 -1.128906 16.085938 -0.5625 16.890625 -0.53125 L 16.890625 0 C 16.179688 -0.0507812 15.234375 -0.078125 14.046875 -0.078125 C 12.523438 -0.078125 11.390625 -0.0507812 10.640625 0 L 10.640625 -0.53125 C 11.316406 -0.5625 11.800781 -0.644531 12.09375 -0.78125 C 12.382812 -0.914062 12.53125 -1.160156 12.53125 -1.515625 C 12.53125 -1.816406 12.425781 -2.234375 12.21875 -2.765625 L 10.59375 -7.109375 L 4.171875 -7.109375 L 3.078125 -4.296875 C 2.722656 -3.335938 2.546875 -2.613281 2.546875 -2.125 C 2.546875 -1.570312 2.734375 -1.171875 3.109375 -0.921875 C 3.492188 -0.679688 4.078125 -0.550781 4.859375 -0.53125 L 4.859375 0 C 3.847656 -0.0507812 2.832031 -0.078125 1.8125 -0.078125 C 1.007812 -0.078125 0.34375 -0.0507812 -0.1875 0 L -0.1875 -0.53125 C 0.695312 -0.738281 1.394531 -1.507812 1.90625 -2.84375 L 8.15625 -18.921875 L 8.578125 -18.921875 Z M 10.375 -7.640625 L 7.40625 -15.578125 L 4.375 -7.640625 Z M 10.375 -7.640625 "/></g></g><g style="fill:#000000;fill-opacity:1;"><g transform="translate(199.447837, 298.7875)"><path style="stroke:none" d="M 9.84375 -19.171875 C 10.90625 -19.171875 11.804688 -19.019531 12.546875 -18.71875 C 13.296875 -18.414062 14.023438 -17.988281 14.734375 -17.4375 C 14.929688 -17.28125 15.097656 -17.203125 15.234375 -17.203125 C 15.585938 -17.203125 15.816406 -17.734375 15.921875 -18.796875 L 16.53125 -18.796875 C 16.46875 -17.640625 16.4375 -15.601562 16.4375 -12.6875 L 15.828125 -12.6875 C 15.628906 -13.84375 15.445312 -14.671875 15.28125 -15.171875 C 15.125 -15.671875 14.863281 -16.15625 14.5 -16.625 C 13.96875 -17.3125 13.289062 -17.828125 12.46875 -18.171875 C 11.644531 -18.515625 10.753906 -18.6875 9.796875 -18.6875 C 8.640625 -18.6875 7.632812 -18.304688 6.78125 -17.546875 C 5.925781 -16.785156 5.257812 -15.703125 4.78125 -14.296875 C 4.300781 -12.890625 4.0625 -11.238281 4.0625 -9.34375 C 4.0625 -7.414062 4.316406 -5.757812 4.828125 -4.375 C 5.335938 -3 6.046875 -1.953125 6.953125 -1.234375 C 7.867188 -0.515625 8.90625 -0.15625 10.0625 -0.15625 C 10.945312 -0.15625 11.804688 -0.320312 12.640625 -0.65625 C 13.472656 -1 14.125 -1.503906 14.59375 -2.171875 C 14.945312 -2.671875 15.203125 -3.203125 15.359375 -3.765625 C 15.523438 -4.335938 15.679688 -5.207031 15.828125 -6.375 L 16.4375 -6.375 C 16.4375 -3.332031 16.46875 -1.207031 16.53125 0 L 15.921875 0 C 15.867188 -0.5625 15.796875 -0.960938 15.703125 -1.203125 C 15.609375 -1.441406 15.472656 -1.5625 15.296875 -1.5625 C 15.148438 -1.5625 14.960938 -1.492188 14.734375 -1.359375 C 13.929688 -0.785156 13.164062 -0.351562 12.4375 -0.0625 C 11.71875 0.226562 10.847656 0.375 9.828125 0.375 C 8.140625 0.375 6.660156 -0.00390625 5.390625 -0.765625 C 4.128906 -1.523438 3.148438 -2.625 2.453125 -4.0625 C 1.753906 -5.507812 1.40625 -7.234375 1.40625 -9.234375 C 1.40625 -11.179688 1.765625 -12.90625 2.484375 -14.40625 C 3.203125 -15.914062 4.203125 -17.085938 5.484375 -17.921875 C 6.765625 -18.753906 8.21875 -19.171875 9.84375 -19.171875 Z M 9.84375 -19.171875 "/></g></g><g style="fill:#000000;fill-opacity:1;"><g transform="translate(217.709391, 298.7875)"><path style="stroke:none" d="M 18.984375 -18.265625 C 18.347656 -18.234375 17.882812 -18.160156 17.59375 -18.046875 C 17.300781 -17.941406 17.097656 -17.738281 16.984375 -17.4375 C 16.878906 -17.132812 16.828125 -16.648438 16.828125 -15.984375 L 16.828125 -2.8125 C 16.828125 -2.144531 16.878906 -1.660156 16.984375 -1.359375 C 17.097656 -1.054688 17.300781 -0.847656 17.59375 -0.734375 C 17.882812 -0.628906 18.347656 -0.5625 18.984375 -0.53125 L 18.984375 0 C 18.234375 -0.0507812 17.097656 -0.078125 15.578125 -0.078125 C 14.148438 -0.078125 13.03125 -0.0507812 12.21875 0 L 12.21875 -0.53125 C 12.851562 -0.5625 13.316406 -0.628906 13.609375 -0.734375 C 13.898438 -0.847656 14.097656 -1.054688 14.203125 -1.359375 C 14.304688 -1.660156 14.359375 -2.144531 14.359375 -2.8125 L 14.359375 -9.1875 L 5.734375 -9.1875 L 5.734375 -2.8125 C 5.734375 -2.144531 5.785156 -1.660156 5.890625 -1.359375 C 5.992188 -1.054688 6.191406 -0.847656 6.484375 -0.734375 C 6.773438 -0.628906 7.242188 -0.5625 7.890625 -0.53125 L 7.890625 0 C 7.066406 -0.0507812 5.941406 -0.078125 4.515625 -0.078125 C 2.992188 -0.078125 1.859375 -0.0507812 1.109375 0 L 1.109375 -0.53125 C 1.753906 -0.5625 2.222656 -0.628906 2.515625 -0.734375 C 2.804688 -0.847656 3.003906 -1.054688 3.109375 -1.359375 C 3.210938 -1.660156 3.265625 -2.144531 3.265625 -2.8125 L 3.265625 -15.984375 C 3.265625 -16.648438 3.210938 -17.132812 3.109375 -17.4375 C 3.003906 -17.738281 2.804688 -17.941406 2.515625 -18.046875 C 2.222656 -18.160156 1.753906 -18.234375 1.109375 -18.265625 L 1.109375 -18.796875 C 1.859375 -18.742188 2.992188 -18.71875 4.515625 -18.71875 C 5.929688 -18.71875 7.054688 -18.742188 7.890625 -18.796875 L 7.890625 -18.265625 C 7.242188 -18.234375 6.773438 -18.160156 6.484375 -18.046875 C 6.191406 -17.941406 5.992188 -17.738281 5.890625 -17.4375 C 5.785156 -17.132812 5.734375 -16.648438 5.734375 -15.984375 L 5.734375 -9.71875 L 14.359375 -9.71875 L 14.359375 -15.984375 C 14.359375 -16.648438 14.304688 -17.132812 14.203125 -17.4375 C 14.097656 -17.738281 13.898438 -17.941406 13.609375 -18.046875 C 13.316406 -18.160156 12.851562 -18.234375 12.21875 -18.265625 L 12.21875 -18.796875 C 13.03125 -18.742188 14.148438 -18.71875 15.578125 -18.71875 C 17.097656 -18.71875 18.234375 -18.742188 18.984375 -18.796875 Z M 18.984375 -18.265625 "/></g></g><g style="fill:#000000;fill-opacity:1;"><g transform="translate(237.802411, 298.7875)"><path style="stroke:none" d="M 9.84375 -19.171875 C 11.53125 -19.171875 13.003906 -18.789062 14.265625 -18.03125 C 15.535156 -17.269531 16.519531 -16.164062 17.21875 -14.71875 C 17.914062 -13.28125 18.265625 -11.5625 18.265625 -9.5625 C 18.265625 -7.613281 17.90625 -5.882812 17.1875 -4.375 C 16.46875 -2.875 15.46875 -1.707031 14.1875 -0.875 C 12.90625 -0.0390625 11.453125 0.375 9.828125 0.375 C 8.140625 0.375 6.660156 -0.00390625 5.390625 -0.765625 C 4.128906 -1.523438 3.148438 -2.625 2.453125 -4.0625 C 1.753906 -5.507812 1.40625 -7.234375 1.40625 -9.234375 C 1.40625 -11.179688 1.765625 -12.90625 2.484375 -14.40625 C 3.203125 -15.914062 4.203125 -17.085938 5.484375 -17.921875 C 6.765625 -18.753906 8.21875 -19.171875 9.84375 -19.171875 Z M 9.75 -18.6875 C 8.613281 -18.6875 7.613281 -18.289062 6.75 -17.5 C 5.894531 -16.71875 5.234375 -15.617188 4.765625 -14.203125 C 4.296875 -12.785156 4.0625 -11.164062 4.0625 -9.34375 C 4.0625 -7.5 4.320312 -5.878906 4.84375 -4.484375 C 5.363281 -3.085938 6.066406 -2.007812 6.953125 -1.25 C 7.835938 -0.488281 8.828125 -0.109375 9.921875 -0.109375 C 11.054688 -0.109375 12.050781 -0.5 12.90625 -1.28125 C 13.769531 -2.070312 14.4375 -3.175781 14.90625 -4.59375 C 15.375 -6.007812 15.609375 -7.628906 15.609375 -9.453125 C 15.609375 -11.296875 15.347656 -12.914062 14.828125 -14.3125 C 14.304688 -15.707031 13.601562 -16.785156 12.71875 -17.546875 C 11.832031 -18.304688 10.84375 -18.6875 9.75 -18.6875 Z M 9.75 -18.6875 "/></g></g></g></svg>